<svg width="24" height="24" viewBox="-3 -3 24 24" fill="none" xmlns="http://www.w3.org/2000/svg">
<g id="up-chevron 1" clip-path="url(#clip0_270_46026)">
<g id="Group">
<path id="Vector" d="M1.50085 10.352L8.62376 3.87804C8.81335 3.69604 9.13835 3.69604 9.32793 3.87804L16.5321 10.352C16.6133 10.43 16.7488 10.482 16.8571 10.482C16.9925 10.482 17.1008 10.43 17.2092 10.326C17.3988 10.144 17.3717 9.85804 17.1821 9.67604L9.97793 3.20204C9.43626 2.70804 8.51543 2.70804 7.97376 3.20204L0.850847 9.70204C0.661263 9.88404 0.661263 10.17 0.823763 10.352C1.01335 10.508 1.31126 10.534 1.50085 10.352Z" fill="white"/>
<path id="Vector_2" d="M9.94863 7.9081C9.40697 7.4141 8.48613 7.4141 7.94447 7.9081L0.82155 14.3821C0.631966 14.5641 0.631966 14.8501 0.794466 15.0321C0.98405 15.2141 1.28197 15.2141 1.47155 15.0581L8.59447 8.5841C8.78405 8.4021 9.10905 8.4021 9.29863 8.5841L16.5028 15.0581C16.5841 15.1361 16.7195 15.1881 16.8278 15.1881C16.9632 15.1881 17.0716 15.1361 17.1799 15.0321C17.3695 14.8501 17.3424 14.5641 17.1528 14.3821L9.94863 7.9081Z" fill="white"/>
</g>
</g>
<defs>
<clipPath id="clip0_270_46026">
<rect width="17.3333" height="16.64" fill="white" transform="translate(0.333984 0.679932)"/>
</clipPath>
</defs>
</svg>
