<svg width="24" height="24" viewBox="0 0 24 24" fill="none" xmlns="http://www.w3.org/2000/svg">
<g id="paper-clip 1" clip-path="url(#clip0_270_46069)">
<g id="Group">
<g id="Group_2">
<path id="Vector" d="M21.9658 2.51439C19.3354 -0.0593263 15.1303 -0.0587664 12.5005 2.51567L1.47117 13.5451C-0.523164 15.5864 -0.48505 18.858 1.5563 20.8523C3.56406 22.8139 6.7706 22.8139 8.77837 20.8523L18.7656 10.865C20.064 9.56666 20.064 7.46155 18.7656 6.16319C17.4673 4.86483 15.3622 4.86483 14.0638 6.16319L4.51075 15.7162C4.17755 16.0612 4.18711 16.611 4.53212 16.9442C4.86868 17.2692 5.40222 17.2692 5.73879 16.9442L15.2918 7.39117C15.9253 6.7843 16.9308 6.80593 17.5376 7.43941C18.1261 8.05376 18.1261 9.02268 17.5376 9.63703L7.55038 19.6243C6.20119 20.9543 4.02921 20.9387 2.6992 19.5895C1.38262 18.2539 1.38262 16.1086 2.6992 14.7731L13.7286 3.74365C15.6932 1.77833 18.879 1.77777 20.8443 3.74233C22.8096 5.70689 22.8102 8.89272 20.8456 10.858L9.81619 21.8875C9.4519 22.1995 9.40946 22.7477 9.72144 23.112C10.0334 23.4763 10.5817 23.5187 10.946 23.2067C10.98 23.1776 11.0116 23.146 11.0407 23.112L22.0701 12.0826C24.6835 9.41161 24.6368 5.12775 21.9658 2.51439Z" fill="#8E949B"/>
</g>
</g>
</g>
<defs>
<clipPath id="clip0_270_46069">
<rect width="24" height="24" fill="white"/>
</clipPath>
</defs>
</svg>
