<svg width="24" height="24" viewBox="-4.5 -4.5 24 24" fill="none" xmlns="http://www.w3.org/2000/svg">
<g id="business 1" clip-path="url(#clip0_270_46410)">
<path id="Vector" d="M14.5312 2.10938H0.46875C0.34443 2.10938 0.225201 2.15876 0.137294 2.24667C0.049386 2.33458 0 2.4538 0 2.57812L0 12.4219C0 12.5462 0.049386 12.6654 0.137294 12.7533C0.225201 12.8412 0.34443 12.8906 0.46875 12.8906H14.5312C14.6556 12.8906 14.7748 12.8412 14.8627 12.7533C14.9506 12.6654 15 12.5462 15 12.4219V2.57812C15 2.4538 14.9506 2.33458 14.8627 2.24667C14.7748 2.15876 14.6556 2.10938 14.5312 2.10938ZM14.0625 11.2898L10.7602 7.98984C10.6705 7.91305 10.5551 7.87292 10.4372 7.87748C10.3192 7.88204 10.2073 7.93094 10.1238 8.01442C10.0403 8.09791 9.99141 8.20981 9.98685 8.32779C9.9823 8.44576 10.0224 8.56111 10.0992 8.65078L13.3992 11.9531H1.60078L4.90078 8.65078C4.97757 8.56111 5.0177 8.44576 5.01315 8.32779C5.00859 8.20981 4.95968 8.09791 4.8762 8.01442C4.79272 7.93094 4.68081 7.88204 4.56284 7.87748C4.44486 7.87292 4.32952 7.91305 4.23984 7.98984L0.9375 11.2898V3.65156L7.18125 9.44531C7.26793 9.5257 7.38178 9.57037 7.5 9.57037C7.61822 9.57037 7.73207 9.5257 7.81875 9.44531L14.0625 3.65156V11.2898Z" fill="#F91C1C"/>
</g>
<defs>
<clipPath id="clip0_270_46410">
<rect width="15" height="15" fill="white"/>
</clipPath>
</defs>
</svg>
