<svg width="23" height="27" viewBox="0 0 23 27" fill="none" xmlns="http://www.w3.org/2000/svg">
<g id="pdf 1" clip-path="url(#clip0_270_45824)">
<g id="Group">
<path id="Vector" d="M3.4365 0.426161H17.292L22.5864 5.85359V26.5689H3.4365V24.0267H3.01562V27H23.0025V5.67725L17.4642 0H3.01562V10.992H3.4365V0.426161Z" fill="#F91C1C"/>
<path id="Vector_2" d="M1.12481 18.4523H1.77048C2.25831 18.4523 2.67441 18.2759 3.01398 17.9183C3.35833 17.5608 3.52573 17.1297 3.52573 16.6252V15.5181C3.52573 14.994 3.37746 14.5629 3.07615 14.2249C2.75093 13.8723 2.3157 13.6959 1.77048 13.6959H-0.00390625V21.3227H1.12003L1.12481 18.4523ZM1.12481 14.8764H1.80395C2.00004 14.8764 2.15309 14.9352 2.27266 15.0577C2.38744 15.1801 2.44962 15.3418 2.44962 15.5377V16.6546C2.44962 16.8358 2.38744 16.9925 2.26309 17.1248C2.13874 17.2522 1.9857 17.3207 1.80874 17.3207H1.12481V14.8764Z" fill="#F91C1C"/>
<path id="Vector_3" d="M7.95932 19.5005V15.5132C7.95932 15.0136 7.78714 14.5874 7.44757 14.2298C7.10322 13.8723 6.68712 13.6959 6.1945 13.6959H4.42969V21.3325H6.1945C6.68234 21.3325 7.09843 21.1562 7.44279 20.7986C7.78714 20.4361 7.95932 20.0051 7.95932 19.5005ZM6.86886 19.525C6.86886 19.7063 6.80669 19.8581 6.68234 19.9904C6.55799 20.1226 6.40973 20.1863 6.23277 20.1863H5.55362V14.8666H6.23277C6.40494 14.8666 6.55799 14.9303 6.68234 15.0626C6.80669 15.1948 6.86886 15.3467 6.86886 15.5328V19.525Z" fill="#F91C1C"/>
<path id="Vector_4" d="M12.1449 14.8519V13.6959H8.94531V21.3325H10.0692V18.0947H11.5854V16.9387H10.0692V14.8568L12.1449 14.8519Z" fill="#F91C1C"/>
</g>
</g>
<defs>
<clipPath id="clip0_270_45824">
<rect width="23" height="27" fill="white"/>
</clipPath>
</defs>
</svg>
