<svg width="24" height="24" viewBox="-4 -4 24 24" fill="none" xmlns="http://www.w3.org/2000/svg">
<g id="placeholder-on-map-paper-in-perspective 1" clip-path="url(#clip0_270_46413)">
<g id="Group">
<path id="Vector" d="M13.4985 8.8241L15.9621 13.885C16.0623 14.0909 15.957 14.2593 15.728 14.2593H0.271964C0.0430491 14.2593 -0.0622843 14.0909 0.0379249 13.885L2.50156 8.8241C2.54075 8.7436 2.64608 8.67772 2.7356 8.67772H4.84804C4.91314 8.67772 5.00106 8.71848 5.04368 8.76771C5.187 8.93333 5.33298 9.09513 5.47855 9.25529C5.6168 9.40732 5.75578 9.56133 5.89366 9.71895H3.38671C3.29717 9.71895 3.19183 9.78481 3.15267 9.86533L1.52062 13.2181H14.4793L12.8474 9.86533C12.8082 9.78481 12.7029 9.71895 12.6133 9.71895H10.1007C10.2386 9.56133 10.3776 9.40732 10.5158 9.25529C10.6618 9.09466 10.8086 8.93317 10.9523 8.7675C10.9949 8.7184 11.0826 8.67772 11.1476 8.67772H13.2645C13.354 8.67772 13.4593 8.74355 13.4985 8.8241ZM11.622 5.36548C11.622 8.13087 9.31983 8.64951 8.23711 11.3071C8.14914 11.523 7.84512 11.5219 7.75712 11.306C6.78041 8.9099 4.81233 8.25283 4.43578 6.11824C4.06504 4.01683 5.51999 1.95837 7.64438 1.75756C9.80491 1.55333 11.622 3.24721 11.622 5.36548ZM9.91149 5.36548C9.91149 4.30833 9.05453 3.45134 7.99735 3.45134C6.94017 3.45134 6.08321 4.30833 6.08321 5.36548C6.08321 6.42266 6.94017 7.27963 7.99735 7.27963C9.05453 7.27963 9.91149 6.42266 9.91149 5.36548Z" fill="#F91C1C"/>
</g>
</g>
<defs>
<clipPath id="clip0_270_46413">
<rect width="16" height="16" fill="white"/>
</clipPath>
</defs>
</svg>
