<svg width="678" height="660" viewBox="0 0 678 660" fill="none" xmlns="http://www.w3.org/2000/svg">
<path d="M663.756 177.381C660.276 194.496 656.261 211.223 651.565 227.804C648.085 240.373 644.338 252.821 640.177 265.123C635.48 279.03 630.394 292.936 624.919 306.599C596.814 377.08 558.512 442.236 511.937 500.537V500.683C507.387 506.445 502.569 512.061 497.872 517.677C493.054 523.439 488.236 528.909 483.272 534.525C478.989 539.339 474.56 544.153 470.156 548.845C465.605 553.537 461.055 558.351 456.504 562.897C444.192 575.199 431.611 587.112 418.617 598.466C408.567 607.291 398.395 615.849 387.956 624.018C372.017 636.733 355.567 648.622 338.68 660C326.099 651.442 313.64 642.617 301.473 633.378C297.458 630.29 293.443 627.227 289.428 624.018C306.437 613.442 322.765 602.088 338.704 590.175C349.143 582.274 359.461 574.13 369.365 565.693C382.359 554.729 395.061 543.351 407.253 531.462C416.353 522.637 425.333 513.398 434.02 504.038C443.924 493.341 453.438 482.376 462.661 470.998C509.382 413.743 547.416 349.146 574.572 279.054C579.926 265.536 584.744 251.897 589.173 237.845C593.066 225.81 596.546 213.509 599.758 201.207C588.248 195.858 576.47 190.898 564.425 186.23C558.001 183.677 551.431 181.271 544.739 179.131C543.547 178.596 542.184 178.183 540.992 177.794C538.315 176.846 535.492 175.922 532.816 175.12C527.584 173.369 522.23 171.765 517.023 170.16C504.978 166.538 492.786 163.328 480.352 160.532C466.287 157.323 452.1 154.503 437.646 152.364C405.914 147.282 373.38 144.73 340.188 144.73C306.048 144.73 272.589 147.404 239.909 152.752C225.576 155.038 211.389 157.834 197.324 161.189C196.789 159.317 196.375 157.566 195.986 155.694C195.596 153.944 195.183 152.072 194.793 150.346C193.723 145.921 192.774 141.374 191.849 136.974C190.243 128.684 188.759 120.515 187.566 112.224C201.631 108.869 215.818 106.073 230.151 103.788C266.019 97.9045 302.714 94.8169 340.188 94.8169C376.738 94.8169 412.484 97.637 447.428 103.253C461.76 105.538 475.947 108.334 490.134 111.544C502.447 114.364 514.76 117.427 526.951 121.05C543.157 125.742 559.218 130.945 574.889 136.828C587.08 141.253 599.125 146.188 610.903 151.269C628.959 159.341 646.625 168.02 663.756 177.381Z" fill="#252525" fill-opacity="0.36"/>
<path d="M308.043 565.694C292.104 577.339 275.776 588.304 258.767 598.467C245.772 587.089 233.07 575.2 220.879 562.898C211.778 553.659 202.799 544.178 194.111 534.55C184.208 523.439 174.693 512.207 165.47 500.708C119.139 442.651 81.1292 377.907 53.0236 308.107C47.5241 294.468 42.4383 280.683 37.7662 266.655C33.6051 254.353 29.736 241.905 26.2563 229.336C21.5598 212.755 17.4231 196.029 13.9433 178.913C11.2666 165.93 8.85753 152.972 6.83782 139.722C3.74741 119.786 1.48437 99.6068 0 79.2576C18.0801 70.2865 36.6712 61.9961 55.5543 54.5079C56.5033 74.5654 58.231 94.3797 60.7861 113.902C62.3921 127.007 64.5335 139.843 66.8209 152.559C70.033 169.407 73.6587 185.988 77.9414 202.447C81.2995 214.749 84.7793 227.051 88.7944 239.231C93.2232 253.138 98.0413 266.777 103.395 280.294C130.576 349.851 168.318 414.059 214.771 471.022C224.018 482.255 233.508 493.366 243.412 504.063C252.123 513.423 261.078 522.661 270.179 531.487C280.618 524.12 290.936 516.365 300.84 508.488C313.956 497.912 326.536 486.947 338.728 475.593C347.975 466.889 356.929 457.943 365.495 448.704C375.399 438.274 384.913 427.309 394.136 416.077C435.236 365.921 468.695 309.201 492.542 247.668C497.774 234.296 502.592 220.657 506.875 206.75C522.935 211.442 538.728 216.913 554.131 222.942C549.849 236.849 545.03 250.488 539.799 264.005C513.834 331.423 477.285 393.759 432.024 448.729C422.777 459.961 413.287 470.804 403.383 481.355C394.671 490.715 385.716 499.687 376.616 508.512C364.424 520.157 351.722 531.39 338.728 542.087C328.799 550.183 318.506 558.06 308.043 565.694Z" fill="#252525" fill-opacity="0.36"/>
<path d="M197.341 161.214H197.196C196.785 159.463 196.398 157.591 195.987 155.719C196.398 157.591 196.809 159.342 197.341 161.214Z" fill="#252525" fill-opacity="0.36"/>
<path d="M677.553 77.75C676.068 98.2208 673.805 118.278 670.861 138.214C653.194 128.976 635.26 120.564 616.767 112.662C604.843 107.702 592.676 102.889 580.363 98.4883C564.424 92.8722 548.242 87.6451 531.768 83.0987C519.577 79.6221 507.142 76.5343 494.683 73.7384C480.497 70.6508 466.164 67.9765 451.71 65.7155C415.428 59.9535 378.075 57.0119 340.188 57.0119C301.229 57.0119 263.074 60.0995 225.867 66.1046C211.413 68.5115 197.08 71.1857 182.893 74.3949C170.435 77.2151 158 80.4244 145.809 83.901C147.025 96.6163 148.631 109.307 150.627 121.877C153.303 138.457 156.662 154.771 160.677 170.963C163.621 183.265 167.101 195.445 170.848 207.479C175.131 221.386 179.949 235.025 185.181 248.397C209.15 309.663 242.341 366.091 283.319 416.004C292.566 427.236 302.056 438.201 311.96 448.631C299.769 460.13 287.188 470.974 274.072 481.258C264.169 470.682 254.654 459.863 245.431 448.631C200.438 393.929 164.035 332.006 138.07 264.856C132.839 251.484 128.02 237.845 123.616 223.914C119.869 211.88 116.389 199.578 113.298 187.276C109.137 171.084 105.658 154.503 102.713 137.922C100.572 125.207 98.6982 112.37 97.2138 99.5337C94.9264 80.1326 93.5881 60.4641 93.0527 40.6741C109.259 35.058 125.855 30.0984 142.718 25.6979C155.177 22.3428 167.879 19.2794 180.606 16.605C194.939 13.5174 209.515 10.989 224.115 8.70362C262.003 2.94166 300.694 0 340.188 0C378.611 0 416.353 2.82014 453.316 8.29036C467.916 10.4298 482.492 12.9826 496.825 16.0459C509.551 18.5987 522.254 21.5405 534.713 24.8712C551.576 29.1501 568.172 34.1098 584.524 39.58C597.105 43.8589 609.564 48.4053 621.998 53.219C640.857 60.7558 659.351 68.9247 677.553 77.75Z" fill="#252525" fill-opacity="0.36"/>
<path d="M197.341 161.214H197.196C196.785 159.463 196.398 157.591 195.987 155.719C196.398 157.591 196.809 159.342 197.341 161.214Z" fill="#252525" fill-opacity="0.36"/>
<path d="M290.898 307.044C290.07 321.453 289.389 335.863 289 350.296C288.854 355.463 288.854 360.63 288.854 365.797C265.809 333.849 246.025 299.451 229.794 262.991C249.164 275.63 268.534 288.147 288.051 300.519C290.63 302.289 291.19 303.939 290.898 307.044Z" fill="#252525" fill-opacity="0.36"/>
<path d="M389.028 366.647C389.174 360.75 389.174 354.854 389.174 348.957C389.174 334.008 387.953 318.912 386.977 303.962C386.977 301.638 387.929 300.953 389.589 299.974C409.173 287.08 429.148 274.064 449 261.292C432.566 298.628 412.592 333.861 389.028 366.647Z" fill="#252525" fill-opacity="0.36"/>
<path d="M459.197 197.105C447.742 204.328 436.02 211.282 424.152 217.678C409.172 225.873 393.753 233.096 377.8 239.078C374.395 240.44 370.99 241.68 367.585 242.628C364.983 243.309 363.5 244.939 362.673 247.395C360.217 255.59 360.095 263.907 360.484 272.345C361.724 294.985 365.956 317.066 370.99 339.001C371.136 340.241 371.136 341.87 370.455 342.697C360.217 354.127 349.735 365.58 338.961 377.448V378.542C334.049 373.095 329.55 368.182 325.051 363.124C319.336 356.996 313.596 350.868 308.149 344.448C307.2 343.5 306.933 341.603 307.2 340.241C310.192 321.978 313.742 303.569 316.612 285.161C318.241 274.388 318.241 263.347 316.466 252.307C315.372 247.395 313.329 244.55 308.003 242.774C276.655 232.415 247.885 216.462 220.21 199.002C219.407 198.613 218.726 198.054 217.899 197.519C257.297 189.202 298.202 184.824 339.91 184.824C380.669 184.824 420.748 189.056 459.197 197.105Z" fill="#252525" fill-opacity="0.36"/>
</svg>
