<svg width="24" height="24" viewBox="-4.5 -4 24 24" fill="none" xmlns="http://www.w3.org/2000/svg">
<g id="telephone 1" clip-path="url(#clip0_270_45488)">
<g id="Group">
<g id="Group_2">
<g id="Group_3">
<path id="Vector" d="M8.33367 5.33331H6.66699V7.1111H8.33367V5.33331Z" fill="#F91C1C"/>
<path id="Vector_2" d="M11.6667 5.33331H10V7.1111H11.6667V5.33331Z" fill="#F91C1C"/>
<path id="Vector_3" d="M14.1667 11.1111C13.1292 11.1111 12.1292 10.9333 11.1917 10.6045C10.9042 10.5067 10.575 10.5778 10.3459 10.8223L8.51254 12.7822C6.15004 11.5022 4.22504 9.44446 3.02086 6.92892L4.85418 4.96892C5.08336 4.72446 5.15 4.37337 5.05836 4.06671C4.75004 3.06671 4.58336 1.99558 4.58336 0.888917C4.58332 0.395542 4.2125 0 3.75 0H0.83332C0.37082 0 0 0.395542 0 0.888875C0 9.23554 6.34168 16 14.1667 16C14.6292 16 15 15.6045 15 15.1111V12C15 11.5067 14.6292 11.1111 14.1667 11.1111Z" fill="#F91C1C"/>
<path id="Vector_4" d="M14.9997 5.33331H13.333V7.1111H14.9997V5.33331Z" fill="#F91C1C"/>
</g>
</g>
</g>
</g>
<defs>
<clipPath id="clip0_270_45488">
<rect width="15" height="16" fill="white"/>
</clipPath>
</defs>
</svg>
