<svg width="142" height="142" viewBox="0 0 142 142" fill="none" xmlns="http://www.w3.org/2000/svg">
<line y1="-0.11509" x2="120.632" y2="-0.11509" transform="matrix(-0.707107 -0.707107 -0.707107 0.707107 113.49 113.382)" stroke="white" stroke-opacity="0.33" stroke-width="0.23018"/>
<line x1="27.7604" y1="113.3" x2="113.06" y2="28.0005" stroke="white" stroke-opacity="0.33" stroke-width="0.23018"/>
<circle cx="70.8954" cy="70.8954" r="65.6012" stroke="white" stroke-opacity="0.17" stroke-width="10.5883"/>
<mask id="path-4-inside-1_270_45738" fill="white">
<path d="M101.485 122.869C91.7509 128.598 80.6036 131.478 69.3126 131.182C58.0217 130.885 47.0408 127.424 37.6208 121.192L38.0386 120.561C47.3403 126.714 58.1833 130.132 69.3325 130.425C80.4817 130.717 91.489 127.873 101.101 122.216L101.485 122.869Z"/>
</mask>
<path d="M101.485 122.869C91.7509 128.598 80.6036 131.478 69.3126 131.182C58.0217 130.885 47.0408 127.424 37.6208 121.192L38.0386 120.561C47.3403 126.714 58.1833 130.132 69.3325 130.425C80.4817 130.717 91.489 127.873 101.101 122.216L101.485 122.869Z" stroke="#F91C1C" stroke-width="0.920719" stroke-dasharray="0.92 0.92" mask="url(#path-4-inside-1_270_45738)"/>
<mask id="path-5-inside-2_270_45738" fill="white">
<path d="M37.1004 20.9468C46.4553 14.6174 57.3996 11.0424 68.6868 10.6288C79.9741 10.2153 91.1507 12.9798 100.944 18.6076L100.688 19.0532C90.9781 13.4734 79.8968 10.7324 68.7057 11.1424C57.5146 11.5525 46.6636 15.097 37.3884 21.3725L37.1004 20.9468Z"/>
</mask>
<path d="M37.1004 20.9468C46.4553 14.6174 57.3996 11.0424 68.6868 10.6288C79.9741 10.2153 91.1507 12.9798 100.944 18.6076L100.688 19.0532C90.9781 13.4734 79.8968 10.7324 68.7057 11.1424C57.5146 11.5525 46.6636 15.097 37.3884 21.3725L37.1004 20.9468Z" stroke="#F91C1C" stroke-width="0.920719" stroke-dasharray="0.92 0.92" mask="url(#path-5-inside-2_270_45738)"/>
<circle cx="70.8945" cy="70.8954" r="51.0999" fill="" stroke="#F91C1C" stroke-width="3.68288"/>
</svg>
