<svg width="320" height="320" viewBox="0 0 320 320" fill="none" xmlns="http://www.w3.org/2000/svg">
<line x1="23.7041" y1="24.3517" x2="296.647" y2="297.295" stroke="white" stroke-opacity="0.17" stroke-width="0.5"/>
<line x1="22.3506" y1="297.295" x2="295.294" y2="24.3517" stroke="white" stroke-opacity="0.17" stroke-width="0.5"/>
<circle cx="160" cy="160" r="149.5" stroke="#C2C2C2" stroke-opacity="0.08" stroke-width="21"/>
<line y1="-0.25" x2="100" y2="-0.25" transform="matrix(-0.707107 -0.707107 -0.707107 0.707107 195 196)" stroke="white" stroke-opacity="0.33" stroke-width="0.5"/>
<line x1="123.823" y1="195.823" x2="194.534" y2="125.113" stroke="white" stroke-opacity="0.33" stroke-width="0.5"/>
<circle cx="160" cy="159" r="58" stroke="white" stroke-opacity="0.09" stroke-width="8"/>
<circle cx="160" cy="160" r="28" fill="white" fill-opacity="0.06"/>
<circle cx="160" cy="160" r="20" fill="#F91C1C"/>
<circle cx="160" cy="160" r="13" fill="black"/>
<circle cx="160" cy="160" r="3" fill="#8E949B"/>
<mask id="path-11-inside-1_270_46237" fill="white">
<path d="M227.295 281.624C207.365 292.651 185.03 298.612 162.256 298.982C139.481 299.351 116.965 294.119 96.6874 283.744L97.174 282.793C117.296 293.088 139.639 298.28 162.239 297.914C184.838 297.547 207.001 291.632 226.778 280.689L227.295 281.624Z"/>
</mask>
<path d="M227.295 281.624C207.365 292.651 185.03 298.612 162.256 298.982C139.481 299.351 116.965 294.119 96.6874 283.744L97.174 282.793C117.296 293.088 139.639 298.28 162.239 297.914C184.838 297.547 207.001 291.632 226.778 280.689L227.295 281.624Z" stroke="#F91C1C" stroke-width="2" mask="url(#path-11-inside-1_270_46237)"/>
<mask id="path-12-inside-2_270_46237" fill="white">
<path d="M93.7952 37.7792C113.823 26.9304 136.21 21.1696 158.987 21.0037C181.764 20.8377 204.233 26.2717 224.417 36.8275L223.922 37.7741C203.893 27.2994 181.597 21.9073 158.995 22.0719C136.393 22.2366 114.178 27.9531 94.3041 38.7185L93.7952 37.7792Z"/>
</mask>
<path d="M93.7952 37.7792C113.823 26.9304 136.21 21.1696 158.987 21.0037C181.764 20.8377 204.233 26.2717 224.417 36.8275L223.922 37.7741C203.893 27.2994 181.597 21.9073 158.995 22.0719C136.393 22.2366 114.178 27.9531 94.3041 38.7185L93.7952 37.7792Z" stroke="#F91C1C" stroke-width="2" mask="url(#path-12-inside-2_270_46237)"/>
</svg>
